<?xml version="1.0" encoding="UTF-8"?>
<!DOCTYPE svg PUBLIC "-//W3C//DTD SVG 1.1//EN" "http://www.w3.org/Graphics/SVG/1.1/DTD/svg11.dtd">
<svg version="1.1" xmlns="http://www.w3.org/2000/svg" xmlns:xlink="http://www.w3.org/1999/xlink" x="0" y="0" width="256" height="256" viewBox="0, 0, 256, 256">
  <g id="Layer_1">
    <g>
      <path d="M63.453,214.32 C30.066,214.32 3,175.437 3,127.473 C3,79.508 30.066,40.625 63.453,40.625 C96.84,40.625 123.906,79.508 123.906,127.473 C123.906,175.437 96.84,214.32 63.453,214.32 z" fill="#FF0000"/>
      <path d="M211.242,10.197 C212.694,10.298 215.236,11.601 216.428,12.732 C217.62,13.864 218.17,16.047 219.43,18.438 C220.69,20.829 222.41,25.173 222.978,27.313 C223.546,29.452 222.553,31.243 222.978,34.286 C227.402,44.791 233.12,55.685 231.439,52.353 C229.758,49.02 234.005,58.807 234.987,62.495 C235.969,66.184 237.918,75.781 237.443,71.687 C236.969,67.593 239.597,92.513 239.354,89.754 C239.111,86.996 242.603,104.159 242.356,102.75 C242.109,101.34 243.068,107.61 244.266,108.455 C245.465,109.3 248.63,105.221 249.725,105.602 C250.82,105.983 253,112.258 253,112.258 C253,112.258 252.9,121.982 252.181,123.352 C251.462,124.722 216.051,141.029 215.336,142.37 C214.622,143.71 217.511,159.341 218.065,159.486 C218.62,159.63 212.688,159.975 212.334,159.803 C211.98,159.63 208.549,148.241 207.694,147.758 C206.839,147.276 195.271,153.101 194.594,153.463 C193.917,153.826 193.081,163.507 190.5,170.896 C187.919,178.286 181.544,190.825 180.948,193.718 C180.351,196.611 180.402,202.593 180.402,202.593 L171.941,202.91 C171.941,202.91 173.038,191.477 174.124,185.794 C175.211,180.11 175.376,177.963 177.4,170.579 C179.423,163.196 179.651,161.794 179.037,160.754 C178.424,159.713 157.203,173.749 157.203,173.749 L132.913,190.231 L103.71,207.981 L92.247,216.222 L85.424,212.418 L79.692,216.222 L75.052,228.267 C75.052,228.267 59.332,235.815 62.225,234.289 C65.118,232.762 51.874,241.334 51.035,240.945 C50.196,240.556 44.552,235.264 45.304,233.972 C46.055,232.679 181.631,143.375 182.312,143.004 C182.993,142.632 179.563,136.404 177.672,134.129 C175.782,131.853 168.95,129.335 168.939,128.107 C168.928,126.878 172.845,118.913 174.67,113.526 C176.496,108.139 177.248,81.674 178.764,70.736 C180.28,59.799 183.131,46.013 183.131,46.013 L189.135,33.335 C189.135,33.335 191.731,27.388 193.502,26.679 C200.985,24.974 200.182,23.547 201.69,21.607 C204.146,15.902 204.627,13.158 206.876,11.148 C209.124,9.137 209.791,10.095 211.242,10.197 z M216.428,67.25 C216.428,67.25 216.063,69.834 214.517,74.857 C212.972,79.88 211.475,83.619 209.605,86.901 C207.734,90.184 203.055,95.459 203.055,95.459 C203.055,95.459 207.875,96.182 210.424,96.41 C212.972,96.639 214.726,95.352 218.338,97.361 C221.951,99.37 224.203,103.158 225.162,105.919 C226.12,108.681 225.707,120.182 225.707,120.182 C225.707,120.182 233.439,116.079 233.895,115.111 C234.351,114.143 234.069,109.09 233.622,105.285 C233.175,101.481 232.696,99.729 231.439,95.142 C230.182,90.556 227.776,87.597 226.253,84.049 C224.73,80.501 223.746,76.21 221.886,72.955 C220.027,69.7 216.428,67.25 216.428,67.25 z" fill="#FF0000"/>
      <path d="M69.974,245.766 C70.696,244.492 71.813,236.12 72.911,231.43 C82.561,211.222 80.501,211.443 84.485,211.346 C92.182,216.063 96.078,218.492 99.1,221.623 C110.033,236.547 111.258,239.752 110.913,240.694 C94.747,241.388 87.515,243.87 84.985,244.181 C82.454,244.492 69.252,247.039 69.974,245.766 z" fill="#FF0000"/>
      <path d="M100.699,226.867 L127.954,216.722 C127.954,216.722 156.538,207.482 162.343,206.262 C168.147,204.676 172.441,203.41 172.441,203.41 C172.441,203.41 184.244,203.943 200.498,205.043 C216.753,206.142 218.021,208.164 228.118,212.285 C238.215,216.405 253.5,227.499 253.5,227.499" fill-opacity="0" stroke="#FF0000" stroke-width="10"/>
    </g>
  </g>
</svg>
